<?xml version="1.0" encoding="UTF-8"?>
<!-- Do not edit this file with editors other than draw.io -->
<!DOCTYPE svg PUBLIC "-//W3C//DTD SVG 1.1//EN" "http://www.w3.org/Graphics/SVG/1.1/DTD/svg11.dtd">
<svg xmlns="http://www.w3.org/2000/svg" xmlns:xlink="http://www.w3.org/1999/xlink" version="1.1" width="459px" height="349px" viewBox="-0.5 -0.5 459 349" content="&lt;mxfile host=&quot;Electron&quot; modified=&quot;2024-02-14T05:21:28.075Z&quot; agent=&quot;Mozilla/5.0 (Macintosh; Intel Mac OS X 10_15_7) AppleWebKit/537.36 (KHTML, like Gecko) draw.io/23.0.2 Chrome/120.0.6099.109 Electron/28.1.0 Safari/537.36&quot; etag=&quot;VeZKfA7Po9LvRB_Y17Ts&quot; version=&quot;23.0.2&quot; type=&quot;device&quot;&gt;&#10;  &lt;diagram name=&quot;ページ1&quot; id=&quot;iPQxbSBu3RQp7l-Fr4d_&quot;&gt;&#10;    &lt;mxGraphModel dx=&quot;1114&quot; dy=&quot;743&quot; grid=&quot;1&quot; gridSize=&quot;10&quot; guides=&quot;1&quot; tooltips=&quot;1&quot; connect=&quot;1&quot; arrows=&quot;1&quot; fold=&quot;1&quot; page=&quot;1&quot; pageScale=&quot;1&quot; pageWidth=&quot;1169&quot; pageHeight=&quot;827&quot; math=&quot;0&quot; shadow=&quot;0&quot;&gt;&#10;      &lt;root&gt;&#10;        &lt;mxCell id=&quot;0&quot; /&gt;&#10;        &lt;mxCell id=&quot;1&quot; parent=&quot;0&quot; /&gt;&#10;        &lt;mxCell id=&quot;MfVd3GDv1SGwxxYFgbVt-1&quot; value=&quot;&quot; style=&quot;sketch=0;outlineConnect=0;fontColor=#232F3E;gradientColor=none;fillColor=#E7157B;strokeColor=none;dashed=0;verticalLabelPosition=bottom;verticalAlign=top;align=center;html=1;fontSize=12;fontStyle=0;aspect=fixed;pointerEvents=1;shape=mxgraph.aws4.eventbridge_scheduler;&quot; parent=&quot;1&quot; vertex=&quot;1&quot;&gt;&#10;          &lt;mxGeometry x=&quot;100&quot; y=&quot;300&quot; width=&quot;78&quot; height=&quot;78&quot; as=&quot;geometry&quot; /&gt;&#10;        &lt;/mxCell&gt;&#10;        &lt;mxCell id=&quot;MfVd3GDv1SGwxxYFgbVt-2&quot; value=&quot;&quot; style=&quot;sketch=0;points=[[0,0,0],[0.25,0,0],[0.5,0,0],[0.75,0,0],[1,0,0],[0,1,0],[0.25,1,0],[0.5,1,0],[0.75,1,0],[1,1,0],[0,0.25,0],[0,0.5,0],[0,0.75,0],[1,0.25,0],[1,0.5,0],[1,0.75,0]];outlineConnect=0;fontColor=#232F3E;fillColor=#E7157B;strokeColor=#ffffff;dashed=0;verticalLabelPosition=bottom;verticalAlign=top;align=center;html=1;fontSize=12;fontStyle=0;aspect=fixed;shape=mxgraph.aws4.resourceIcon;resIcon=mxgraph.aws4.step_functions;&quot; parent=&quot;1&quot; vertex=&quot;1&quot;&gt;&#10;          &lt;mxGeometry x=&quot;290&quot; y=&quot;300&quot; width=&quot;78&quot; height=&quot;78&quot; as=&quot;geometry&quot; /&gt;&#10;        &lt;/mxCell&gt;&#10;        &lt;mxCell id=&quot;MfVd3GDv1SGwxxYFgbVt-3&quot; value=&quot;&quot; style=&quot;sketch=0;outlineConnect=0;fontColor=#232F3E;gradientColor=none;fillColor=#ED7100;strokeColor=none;dashed=0;verticalLabelPosition=bottom;verticalAlign=top;align=center;html=1;fontSize=12;fontStyle=0;aspect=fixed;pointerEvents=1;shape=mxgraph.aws4.lambda_function;&quot; parent=&quot;1&quot; vertex=&quot;1&quot;&gt;&#10;          &lt;mxGeometry x=&quot;305&quot; y=&quot;440&quot; width=&quot;48&quot; height=&quot;48&quot; as=&quot;geometry&quot; /&gt;&#10;        &lt;/mxCell&gt;&#10;        &lt;mxCell id=&quot;MfVd3GDv1SGwxxYFgbVt-4&quot; value=&quot;&quot; style=&quot;sketch=0;points=[[0,0,0],[0.25,0,0],[0.5,0,0],[0.75,0,0],[1,0,0],[0,1,0],[0.25,1,0],[0.5,1,0],[0.75,1,0],[1,1,0],[0,0.25,0],[0,0.5,0],[0,0.75,0],[1,0.25,0],[1,0.5,0],[1,0.75,0]];outlineConnect=0;fontColor=#232F3E;fillColor=#7AA116;strokeColor=#ffffff;dashed=0;verticalLabelPosition=bottom;verticalAlign=top;align=center;html=1;fontSize=12;fontStyle=0;aspect=fixed;shape=mxgraph.aws4.resourceIcon;resIcon=mxgraph.aws4.s3;&quot; parent=&quot;1&quot; vertex=&quot;1&quot;&gt;&#10;          &lt;mxGeometry x=&quot;480&quot; y=&quot;570&quot; width=&quot;78&quot; height=&quot;78&quot; as=&quot;geometry&quot; /&gt;&#10;        &lt;/mxCell&gt;&#10;        &lt;mxCell id=&quot;MfVd3GDv1SGwxxYFgbVt-6&quot; value=&quot;&quot; style=&quot;sketch=0;outlineConnect=0;fontColor=#232F3E;gradientColor=none;fillColor=#E7157B;strokeColor=none;dashed=0;verticalLabelPosition=bottom;verticalAlign=top;align=center;html=1;fontSize=12;fontStyle=0;aspect=fixed;pointerEvents=1;shape=mxgraph.aws4.cloudwatch_logs;&quot; parent=&quot;1&quot; vertex=&quot;1&quot;&gt;&#10;          &lt;mxGeometry x=&quot;305&quot; y=&quot;580&quot; width=&quot;78&quot; height=&quot;58&quot; as=&quot;geometry&quot; /&gt;&#10;        &lt;/mxCell&gt;&#10;        &lt;mxCell id=&quot;MfVd3GDv1SGwxxYFgbVt-7&quot; value=&quot;&quot; style=&quot;edgeStyle=orthogonalEdgeStyle;html=1;endArrow=block;elbow=vertical;startArrow=none;endFill=1;strokeColor=#545B64;rounded=0;entryX=0;entryY=0.5;entryDx=0;entryDy=0;entryPerimeter=0;strokeWidth=5;&quot; parent=&quot;1&quot; source=&quot;MfVd3GDv1SGwxxYFgbVt-1&quot; target=&quot;MfVd3GDv1SGwxxYFgbVt-2&quot; edge=&quot;1&quot;&gt;&#10;          &lt;mxGeometry width=&quot;100&quot; relative=&quot;1&quot; as=&quot;geometry&quot;&gt;&#10;            &lt;mxPoint x=&quot;360&quot; y=&quot;450&quot; as=&quot;sourcePoint&quot; /&gt;&#10;            &lt;mxPoint x=&quot;460&quot; y=&quot;450&quot; as=&quot;targetPoint&quot; /&gt;&#10;          &lt;/mxGeometry&gt;&#10;        &lt;/mxCell&gt;&#10;        &lt;mxCell id=&quot;MfVd3GDv1SGwxxYFgbVt-8&quot; value=&quot;&quot; style=&quot;edgeStyle=orthogonalEdgeStyle;html=1;endArrow=block;elbow=vertical;startArrow=none;endFill=1;strokeColor=#545B64;rounded=0;exitX=0.5;exitY=1;exitDx=0;exitDy=0;exitPerimeter=0;strokeWidth=5;&quot; parent=&quot;1&quot; source=&quot;MfVd3GDv1SGwxxYFgbVt-2&quot; target=&quot;MfVd3GDv1SGwxxYFgbVt-3&quot; edge=&quot;1&quot;&gt;&#10;          &lt;mxGeometry width=&quot;100&quot; relative=&quot;1&quot; as=&quot;geometry&quot;&gt;&#10;            &lt;mxPoint x=&quot;330&quot; y=&quot;380&quot; as=&quot;sourcePoint&quot; /&gt;&#10;            &lt;mxPoint x=&quot;300&quot; y=&quot;349&quot; as=&quot;targetPoint&quot; /&gt;&#10;          &lt;/mxGeometry&gt;&#10;        &lt;/mxCell&gt;&#10;        &lt;mxCell id=&quot;MfVd3GDv1SGwxxYFgbVt-9&quot; value=&quot;&quot; style=&quot;edgeStyle=orthogonalEdgeStyle;html=1;endArrow=block;elbow=vertical;startArrow=none;endFill=1;strokeColor=#545B64;rounded=0;exitX=0.521;exitY=1.042;exitDx=0;exitDy=0;exitPerimeter=0;strokeWidth=5;&quot; parent=&quot;1&quot; source=&quot;MfVd3GDv1SGwxxYFgbVt-3&quot; target=&quot;MfVd3GDv1SGwxxYFgbVt-6&quot; edge=&quot;1&quot;&gt;&#10;          &lt;mxGeometry width=&quot;100&quot; relative=&quot;1&quot; as=&quot;geometry&quot;&gt;&#10;            &lt;mxPoint x=&quot;367&quot; y=&quot;488&quot; as=&quot;sourcePoint&quot; /&gt;&#10;            &lt;mxPoint x=&quot;367&quot; y=&quot;550&quot; as=&quot;targetPoint&quot; /&gt;&#10;          &lt;/mxGeometry&gt;&#10;        &lt;/mxCell&gt;&#10;        &lt;mxCell id=&quot;MfVd3GDv1SGwxxYFgbVt-10&quot; value=&quot;&quot; style=&quot;edgeStyle=orthogonalEdgeStyle;html=1;endArrow=block;elbow=vertical;startArrow=none;endFill=1;strokeColor=#545B64;rounded=0;strokeWidth=5;entryX=0;entryY=0.5;entryDx=0;entryDy=0;entryPerimeter=0;&quot; parent=&quot;1&quot; source=&quot;MfVd3GDv1SGwxxYFgbVt-6&quot; target=&quot;MfVd3GDv1SGwxxYFgbVt-4&quot; edge=&quot;1&quot;&gt;&#10;          &lt;mxGeometry width=&quot;100&quot; relative=&quot;1&quot; as=&quot;geometry&quot;&gt;&#10;            &lt;mxPoint x=&quot;339&quot; y=&quot;388&quot; as=&quot;sourcePoint&quot; /&gt;&#10;            &lt;mxPoint x=&quot;339&quot; y=&quot;450&quot; as=&quot;targetPoint&quot; /&gt;&#10;          &lt;/mxGeometry&gt;&#10;        &lt;/mxCell&gt;&#10;      &lt;/root&gt;&#10;    &lt;/mxGraphModel&gt;&#10;  &lt;/diagram&gt;&#10;&lt;/mxfile&gt;&#10;"><defs/><g><rect x="0" y="0" width="78" height="78" fill="none" stroke="none" pointer-events="all"/><path d="M 23.05 25.7 L 29.99 25.7 L 29.99 22.16 L 24.68 22.16 L 24.68 16.84 L 21.27 16.84 L 21.27 23.93 C 21.27 24.91 22.07 25.7 23.05 25.7 Z M 5.84 40.41 L 8.34 42.91 L 13.66 37.59 L 11.16 35.09 Z M 11.89 12.04 L 6.57 6.72 L 4.06 9.23 L 9.38 14.55 Z M 24.68 7.98 L 24.82 7.98 L 24.82 0.89 L 24.68 0.89 L 21.27 0.89 L 21.27 7.98 Z M 42.03 9.23 L 39.52 6.72 L 34.2 12.04 L 36.71 14.55 Z M 12.27 23.93 C 12.28 29.8 17.03 34.56 22.9 34.57 C 28.77 34.56 33.53 29.8 33.54 23.93 C 33.53 18.06 28.77 13.31 22.9 13.3 C 17.03 13.31 12.28 18.06 12.27 23.93 Z M 8.72 23.93 C 8.73 16.1 15.08 9.76 22.9 9.75 C 30.73 9.76 37.08 16.1 37.09 23.93 C 37.08 31.76 30.73 38.1 22.9 38.11 C 15.08 38.1 8.73 31.76 8.72 23.93 Z M 28.36 64.7 L 35.45 64.7 L 35.45 61.16 L 28.36 61.16 Z M 28.36 55.84 L 35.45 55.84 L 35.45 52.3 L 28.36 52.3 Z M 28.36 46.98 L 35.45 46.98 L 35.45 43.43 L 28.36 43.43 Z M 60.27 64.7 L 67.36 64.7 L 67.36 61.16 L 60.27 61.16 Z M 60.27 55.84 L 67.36 55.84 L 67.36 52.3 L 60.27 52.3 Z M 60.27 46.98 L 67.36 46.98 L 67.36 43.43 L 60.27 43.43 Z M 44.32 64.7 L 51.41 64.7 L 51.41 61.16 L 44.32 61.16 Z M 44.32 55.84 L 51.41 55.84 L 51.41 52.3 L 44.32 52.3 Z M 44.32 46.98 L 51.41 46.98 L 51.41 43.43 L 44.32 43.43 Z M 76.23 18.61 L 70.91 18.61 L 70.91 15.07 L 67.36 15.07 L 67.36 18.61 L 60.13 18.61 L 60.13 15.07 L 56.73 15.07 L 56.73 18.61 L 49.49 18.61 L 49.49 15.07 L 46.09 15.07 L 46.09 18.61 L 40.77 18.61 L 40.77 22.16 L 46.09 22.16 L 46.09 25.7 L 49.49 25.7 L 49.49 22.16 L 56.73 22.16 L 56.73 25.7 L 60.13 25.7 L 60.13 22.16 L 67.36 22.16 L 67.36 25.7 L 70.77 25.7 L 70.77 22.16 L 74.45 22.16 L 74.45 29.25 L 40.77 29.25 L 40.77 32.8 L 74.45 32.8 L 74.45 73.57 L 21.27 73.57 L 21.27 43.43 L 17.73 43.43 L 17.73 75.34 C 17.73 75.81 17.91 76.26 18.25 76.59 C 18.58 76.93 19.03 77.11 19.5 77.11 L 76.23 77.11 C 76.7 77.11 77.15 76.93 77.48 76.59 C 77.81 76.26 78 75.81 78 75.34 L 78 31.02 L 78 20.39 C 78 19.41 77.21 18.61 76.23 18.61 Z M 0 27.48 L 7.05 27.48 L 7.05 23.93 L 0 23.93 Z" fill="#e7157b" stroke="none" pointer-events="all"/><path d="M 190 0 L 268 0 L 268 78 L 190 78 Z" fill="#e7157b" stroke="none" pointer-events="all"/><path d="M 246.83 53.49 L 211.17 53.49 L 211.17 49.03 L 221.2 49.03 C 221.82 49.03 222.31 48.53 222.31 47.91 L 222.31 41.23 C 222.31 40.61 221.82 40.11 221.2 40.11 L 211.17 40.11 L 211.17 37.89 L 221.2 37.89 C 221.82 37.89 222.31 37.39 222.31 36.77 L 222.31 30.09 C 222.31 29.47 221.82 28.97 221.2 28.97 L 211.17 28.97 L 211.17 25.63 L 246.83 25.63 L 246.83 30.09 L 249.06 30.09 L 249.06 24.51 C 249.06 23.9 248.56 23.4 247.94 23.4 L 230.11 23.4 L 230.11 19.95 C 232.96 19.42 235.13 16.93 235.13 13.93 C 235.13 10.55 232.38 7.8 229 7.8 C 225.62 7.8 222.87 10.55 222.87 13.93 C 222.87 16.93 225.04 19.42 227.89 19.95 L 227.89 23.4 L 210.06 23.4 C 209.44 23.4 208.94 23.9 208.94 24.51 L 208.94 28.97 L 198.91 28.97 C 198.3 28.97 197.8 29.47 197.8 30.09 L 197.8 36.77 C 197.8 37.39 198.3 37.89 198.91 37.89 L 208.94 37.89 L 208.94 40.11 L 198.91 40.11 C 198.3 40.11 197.8 40.61 197.8 41.23 L 197.8 47.91 C 197.8 48.53 198.3 49.03 198.91 49.03 L 208.94 49.03 L 208.94 54.6 C 208.94 55.22 209.44 55.71 210.06 55.71 L 227.89 55.71 L 227.89 58.05 C 225.04 58.58 222.87 61.07 222.87 64.07 C 222.87 67.45 225.62 70.2 229 70.2 C 232.38 70.2 235.13 67.45 235.13 64.07 C 235.13 61.07 232.96 58.58 230.11 58.05 L 230.11 55.71 L 247.94 55.71 C 248.56 55.71 249.06 55.22 249.06 54.6 L 249.06 49.06 L 246.83 49.06 Z M 225.1 13.93 C 225.1 11.78 226.85 10.03 229 10.03 C 231.15 10.03 232.9 11.78 232.9 13.93 C 232.9 16.08 231.15 17.83 229 17.83 C 226.85 17.83 225.1 16.08 225.1 13.93 Z M 200.03 35.66 L 200.03 31.2 L 220.09 31.2 L 220.09 35.66 Z M 200.03 46.8 L 200.03 42.34 L 220.09 42.34 L 220.09 46.8 Z M 232.9 64.07 C 232.9 66.22 231.15 67.97 229 67.97 C 226.85 67.97 225.1 66.22 225.1 64.07 C 225.1 61.92 226.85 60.17 229 60.17 C 231.15 60.17 232.9 61.92 232.9 64.07 Z M 259.09 33.43 L 233.46 33.43 C 232.84 33.43 232.34 33.93 232.34 34.54 L 232.34 44.57 C 232.34 45.19 232.84 45.69 233.46 45.69 L 259.09 45.69 C 259.7 45.69 260.2 45.19 260.2 44.57 L 260.2 34.54 C 260.2 33.93 259.7 33.43 259.09 33.43 Z M 234.57 43.46 L 234.57 35.66 L 257.97 35.66 L 257.97 43.46 Z" fill="#ffffff" stroke="none" pointer-events="all"/><rect x="205" y="140" width="48" height="48" fill="none" stroke="none" pointer-events="all"/><path d="M 207.18 164 C 207.18 151.97 216.97 142.18 229 142.18 C 241.03 142.18 250.82 151.97 250.82 164 C 250.82 176.03 241.03 185.82 229 185.82 C 216.97 185.82 207.18 176.03 207.18 164 Z M 205 164 C 205 177.23 215.77 188 229 188 C 242.23 188 253 177.23 253 164 C 253 150.77 242.23 140 229 140 C 215.77 140 205 150.77 205 164 Z M 221.62 176.27 L 215.78 176.27 L 222.7 161.78 L 225.62 167.81 Z M 223.67 158.78 C 223.49 158.4 223.11 158.17 222.69 158.17 L 222.69 158.17 C 222.27 158.17 221.88 158.41 221.7 158.79 L 213.06 176.89 C 212.9 177.23 212.92 177.63 213.12 177.94 C 213.32 178.26 213.67 178.45 214.05 178.45 L 222.31 178.45 C 222.73 178.45 223.11 178.21 223.29 177.83 L 227.82 168.27 C 227.96 167.97 227.96 167.63 227.81 167.33 Z M 242.23 176.27 L 236.28 176.27 L 225.47 153.04 C 225.29 152.65 224.9 152.41 224.48 152.41 L 220.55 152.41 L 220.55 147.91 L 228.43 147.91 L 239.19 171.14 C 239.37 171.53 239.75 171.77 240.18 171.77 L 242.23 171.77 Z M 240.88 169.59 L 230.11 146.36 C 229.93 145.97 229.55 145.73 229.12 145.73 L 219.46 145.73 C 218.86 145.73 218.37 146.21 218.37 146.82 L 218.36 153.5 C 218.36 153.79 218.48 154.07 218.68 154.27 C 218.89 154.48 219.17 154.59 219.46 154.59 L 223.78 154.59 L 234.59 177.82 C 234.77 178.21 235.16 178.45 235.58 178.45 L 243.32 178.45 C 243.92 178.45 244.41 177.97 244.41 177.36 L 244.41 170.68 C 244.41 170.08 243.92 169.59 243.32 169.59 Z" fill="#ed7100" stroke="none" pointer-events="all"/><path d="M 380 270 L 458 270 L 458 348 L 380 348 Z" fill="#7aa116" stroke="none" pointer-events="all"/><path d="M 442.28 312.22 L 442.71 309.21 C 446.66 311.57 446.71 312.55 446.71 312.58 C 446.7 312.58 446.03 313.14 442.28 312.22 Z M 440.12 311.62 C 433.3 309.56 423.8 305.2 419.96 303.39 C 419.96 303.37 419.96 303.36 419.96 303.34 C 419.96 301.86 418.76 300.66 417.28 300.66 C 415.81 300.66 414.61 301.86 414.61 303.34 C 414.61 304.82 415.81 306.02 417.28 306.02 C 417.93 306.02 418.52 305.78 418.98 305.39 C 423.51 307.53 432.93 311.82 439.8 313.85 L 437.08 333.03 C 437.07 333.08 437.07 333.13 437.07 333.18 C 437.07 334.87 429.6 337.97 417.39 337.97 C 405.05 337.97 397.49 334.87 397.49 333.18 C 397.49 333.13 397.49 333.08 397.48 333.03 L 391.81 291.57 C 396.72 294.95 407.29 296.74 417.39 296.74 C 427.48 296.74 438.03 294.96 442.96 291.59 Z M 391.21 287.25 C 391.29 285.78 399.71 280.03 417.39 280.03 C 435.07 280.03 443.5 285.78 443.58 287.25 L 443.58 287.75 C 442.61 291.04 431.69 294.51 417.39 294.51 C 403.07 294.51 392.15 291.02 391.21 287.73 Z M 445.81 287.27 C 445.81 283.41 434.74 277.8 417.39 277.8 C 400.05 277.8 388.98 283.41 388.98 287.27 L 389.08 288.11 L 395.27 333.27 C 395.41 338.32 408.88 340.2 417.39 340.2 C 427.94 340.2 439.15 337.77 439.3 333.27 L 441.97 314.44 C 443.45 314.8 444.68 314.98 445.66 314.98 C 446.98 314.98 447.87 314.66 448.41 314.01 C 448.85 313.49 449.02 312.85 448.89 312.16 C 448.61 310.62 446.77 308.96 443.05 306.83 L 445.69 288.16 Z" fill="#ffffff" stroke="none" pointer-events="all"/><rect x="205" y="280" width="78" height="58" fill="none" stroke="none" pointer-events="all"/><path d="M 253.16 295.87 C 247.46 295.87 242.6 299.53 240.79 304.62 L 244.59 304.62 C 246.19 301.51 249.43 299.37 253.16 299.37 C 258.47 299.37 262.79 303.69 262.79 309 C 262.79 314.31 258.47 318.63 253.16 318.63 C 250.18 318.63 247.51 317.27 245.74 315.13 L 241.55 315.13 C 243.76 319.29 248.13 322.13 253.16 322.13 C 260.4 322.13 266.3 316.24 266.3 309 C 266.3 301.76 260.4 295.87 253.16 295.87 Z M 205 323.89 L 227.77 323.89 L 227.77 320.38 L 205 320.38 Z M 205 297.62 L 227.77 297.62 L 227.77 294.11 L 205 294.11 Z M 205 311.63 L 252.29 311.63 L 252.29 308.12 L 205 308.12 Z M 278.28 328.68 L 269.48 320.76 C 268.75 321.77 267.93 322.71 267.02 323.57 L 275.77 331.47 C 276.54 332.16 277.73 332.09 278.42 331.33 C 279.11 330.56 279.05 329.37 278.28 328.68 Z M 281.02 333.67 C 279.96 334.85 278.5 335.44 277.02 335.44 C 275.74 335.44 274.46 334.99 273.43 334.07 L 264.25 325.79 C 261.07 327.9 257.26 329.14 253.16 329.14 C 244.19 329.14 236.58 323.25 233.98 315.13 L 237.71 315.13 C 240.16 321.27 246.15 325.64 253.16 325.64 C 262.33 325.64 269.8 318.17 269.8 309 C 269.8 299.83 262.33 292.36 253.16 292.36 C 245.5 292.36 239.06 297.57 237.13 304.62 L 233.51 304.62 C 235.52 295.61 243.56 288.86 253.16 288.86 C 264.27 288.86 273.3 297.89 273.3 309 C 273.3 312.11 272.57 315.05 271.3 317.69 L 280.63 326.08 C 282.82 328.07 283 331.47 281.02 333.67 Z M 205 337.9 L 238.27 337.9 L 238.27 334.39 L 205 334.39 Z M 205 283.61 L 241.78 283.61 L 241.78 280.1 L 205 280.1 Z" fill="#e7157b" stroke="none" pointer-events="all"/><path d="M 78 39 L 173.41 39" fill="none" stroke="#545b64" stroke-width="5" stroke-miterlimit="10" pointer-events="stroke"/><path d="M 184.41 39 L 173.41 44.5 L 173.41 33.5 Z" fill="#545b64" stroke="#545b64" stroke-width="5" stroke-miterlimit="10" pointer-events="all"/><path d="M 229 78 L 229 123.41" fill="none" stroke="#545b64" stroke-width="5" stroke-miterlimit="10" pointer-events="stroke"/><path d="M 229 134.41 L 223.5 123.41 L 234.5 123.41 Z" fill="#545b64" stroke="#545b64" stroke-width="5" stroke-miterlimit="10" pointer-events="all"/><path d="M 230.01 190.02 L 230 234.1 L 244 234.1 L 244 263.51" fill="none" stroke="#545b64" stroke-width="5" stroke-miterlimit="10" pointer-events="stroke"/><path d="M 244 274.51 L 238.5 263.51 L 249.5 263.51 Z" fill="#545b64" stroke="#545b64" stroke-width="5" stroke-miterlimit="10" pointer-events="all"/><path d="M 283 309 L 363.41 309" fill="none" stroke="#545b64" stroke-width="5" stroke-miterlimit="10" pointer-events="stroke"/><path d="M 374.41 309 L 363.41 314.5 L 363.41 303.5 Z" fill="#545b64" stroke="#545b64" stroke-width="5" stroke-miterlimit="10" pointer-events="all"/></g></svg>